<svg width="1080" height="1080" viewBox="0 0 1080 1080" fill="none" xmlns="http://www.w3.org/2000/svg">
<rect width="1080" height="1080" fill="#3B5BFF"/>
<path d="M190 545.868C190 416.833 294.604 312.229 423.639 312.229H657.278C786.313 312.229 890.917 416.833 890.917 545.868V580.914C890.917 709.949 786.313 814.553 657.278 814.553H423.639C294.604 814.553 190 709.949 190 580.914V545.868Z" fill="white"/>
<path d="M283.456 563.391C283.456 482.744 348.833 417.367 429.48 417.367H663.119C743.766 417.367 809.143 482.744 809.143 563.391C809.143 644.038 743.766 709.415 663.119 709.415H429.48C348.833 709.415 283.456 644.038 283.456 563.391Z" fill="#3B5BFF"/>
<path d="M550.575 937.214C546.079 945.002 534.838 945.002 530.342 937.214L449.407 797.03C444.91 789.242 450.531 779.507 459.524 779.507L621.393 779.507C630.386 779.507 636.007 789.242 631.51 797.03L550.575 937.214Z" fill="white"/>
<path d="M692.324 569.232C692.324 595.039 671.403 615.96 645.596 615.96C619.789 615.96 598.869 595.039 598.869 569.232C598.869 543.425 619.789 522.504 645.596 522.504C671.403 522.504 692.324 543.425 692.324 569.232Z" fill="white"/>
<path d="M493.73 569.232C493.73 595.039 472.81 615.96 447.003 615.96C421.196 615.96 400.275 595.039 400.275 569.232C400.275 543.425 421.196 522.504 447.003 522.504C472.81 522.504 493.73 543.425 493.73 569.232Z" fill="white"/>
<path d="M668.96 247.979C668.96 225.397 687.266 207.092 709.847 207.092C732.428 207.092 750.734 225.397 750.734 247.979V329.752C750.734 352.333 732.428 370.639 709.847 370.639C687.266 370.639 668.96 352.333 668.96 329.752V247.979Z" fill="white"/>
<path d="M774.098 201.251C774.098 236.735 745.332 265.501 709.847 265.501C674.362 265.501 645.596 236.735 645.596 201.251C645.596 165.766 674.362 137 709.847 137C745.332 137 774.098 165.766 774.098 201.251Z" fill="white"/>
<path d="M341.866 247.979C341.866 225.397 360.171 207.092 382.753 207.092C405.334 207.092 423.639 225.397 423.639 247.979V329.752C423.639 352.333 405.334 370.639 382.753 370.639C360.171 370.639 341.866 352.333 341.866 329.752V247.979Z" fill="white"/>
<path d="M447.003 201.251C447.003 236.735 418.237 265.501 382.753 265.501C347.268 265.501 318.502 236.735 318.502 201.251C318.502 165.766 347.268 137 382.753 137C418.237 137 447.003 165.766 447.003 201.251Z" fill="white"/>
</svg>
