<svg preserveAspectRatio="none" overflow="visible" style="display: block;" width="44.0006" height="11.2032" viewBox="0 0 44.0006 11.2032" fill="none" xmlns="http://www.w3.org/2000/svg">
<g id="botzo">
<path id="Vector" fill-rule="evenodd" clip-rule="evenodd" d="M0.0149514 0.0417773C0.0394642 0.00366852 0.242004 -0.00537216 0.891517 0.00273278C1.17303 0.00623972 1.45462 0.00974743 1.7362 0.0132544C1.73605 0.640686 1.73597 1.26804 1.73581 1.89555C1.73566 2.93057 1.75017 3.78688 1.76801 3.79779C1.78593 3.80909 1.81145 3.78338 1.82479 3.74082C1.88925 3.5368 2.8852 2.94693 3.37693 2.8213C4.28802 2.58922 5.3897 2.68866 6.22585 3.07918C7.20505 3.53641 8.00645 4.43879 8.36584 5.48939C8.7288 6.55004 8.64719 7.92367 8.16299 8.90367C7.6054 10.0323 6.68252 10.7509 5.37442 11.0747C4.90131 11.1917 3.96912 11.2222 3.4739 11.1363C2.72858 11.0076 2.11437 10.736 1.50604 10.2675C1.34997 10.1474 1.15123 9.96791 1.06435 9.86839C0.523281 9.25086 0.0964789 8.28731 0.0425661 7.56207C0.00812402 7.09939 -0.0175514 0.0921994 0.0149514 0.0417773ZM1.72534 6.48848C1.7082 6.5961 1.70052 6.87034 1.70828 7.09744C1.75746 8.52796 2.78327 9.54778 4.1767 9.5509C4.84057 9.55246 5.48108 9.35584 5.92735 9.01371C6.16938 8.828 6.50093 8.40857 6.65142 8.09809C6.85132 7.68575 6.89879 7.41852 6.87839 6.82125C6.86233 6.35194 6.84752 6.26139 6.74373 5.9961C6.50364 5.38208 6.11446 4.93342 5.58984 4.6658C5.18654 4.46022 4.93094 4.3974 4.40477 4.37519C3.55651 4.33966 2.98093 4.54329 2.46732 5.06178C2.03276 5.5003 1.81688 5.91537 1.72534 6.48848Z" fill="white"/>
<path id="Vector_2" fill-rule="evenodd" clip-rule="evenodd" d="M9.74555 6.56727C9.79241 6.0484 9.97594 5.36259 10.1736 4.96818C10.7372 3.84307 11.771 3.0671 13.0622 2.80026C13.4074 2.72888 13.5555 2.71992 14.1594 2.73511C14.7501 2.74992 14.9173 2.76792 15.2454 2.85411C16.0491 3.06515 16.8616 3.58013 17.3465 4.18598C18.007 5.01143 18.289 5.83034 18.294 6.93667C18.2971 7.55778 18.251 7.88035 18.0908 8.36064C17.5416 10.0077 16.2166 11.015 14.3743 11.1858C12.9361 11.3193 11.3528 10.672 10.5898 9.63865C10.2907 9.23333 10.0235 8.70666 9.91264 8.30328C9.76448 7.76415 9.69893 7.08341 9.74555 6.56727ZM11.4615 6.52823C11.418 6.86645 11.456 7.41969 11.5456 7.75558C11.65 8.14765 11.8156 8.44761 12.0999 8.75973C12.3962 9.0851 12.7065 9.28874 13.1091 9.42216C13.3829 9.51263 13.4888 9.52628 13.9461 9.529C14.3925 9.53134 14.5124 9.51848 14.759 9.44047C15.5092 9.20402 16.0056 8.79285 16.345 8.1277C16.5327 7.75986 16.5991 7.44775 16.5991 6.93784C16.5991 5.98987 16.2453 5.28723 15.5224 4.80078C14.5903 4.1739 13.1436 4.2332 12.3109 4.93264C11.8439 5.32472 11.5437 5.88887 11.4615 6.52823Z" fill="#FEFEFE"/>
<path id="Vector_3" fill-rule="evenodd" clip-rule="evenodd" d="M19.0945 3.51889C19.1089 2.74214 19.065 2.80417 19.5991 2.803C19.7054 2.803 19.8121 2.80261 19.9183 2.80261C19.9218 2.40274 19.9253 2.00287 19.9288 1.603C19.9319 1.20313 19.9354 0.803263 19.9389 0.403393C20.2298 0.403393 20.5207 0.403393 20.8116 0.403393C21.1025 0.403393 21.3934 0.403393 21.6843 0.403393C21.6878 0.809809 21.6913 1.21615 21.6944 1.62249C21.6979 2.02898 21.7013 2.43516 21.7048 2.84166C22.3169 2.84166 22.9293 2.84166 23.5417 2.84166C24.1538 2.84166 24.7662 2.84166 25.3787 2.84166C25.3767 3.10499 25.3752 3.36832 25.3736 3.63165C25.3721 3.89498 25.3705 4.15831 25.369 4.42157C24.7592 4.42515 24.1495 4.42828 23.5398 4.43178C22.9297 4.43529 22.32 4.43841 21.7103 4.44191C21.7017 4.49226 21.6932 4.54291 21.6851 4.59325C21.6711 4.67672 21.6703 5.46633 21.6835 6.34797C21.7095 8.06957 21.7269 8.23424 21.9216 8.56818C22.1354 8.93563 22.4751 9.21385 22.8866 9.35896C23.0953 9.43269 23.2346 9.4436 24.2345 9.46308C24.606 9.47048 24.978 9.47757 25.3496 9.48498C25.3496 9.74831 25.3496 10.0116 25.3496 10.2746C25.3496 10.5378 25.3496 10.8012 25.3496 11.0645C25.0335 11.0739 24.717 11.0833 24.4009 11.093C23.4176 11.1226 23.0383 11.1055 22.5764 11.0103C21.3701 10.7622 20.5994 10.1368 20.1906 9.0749C19.9575 8.46983 19.9486 8.37507 19.93 6.32459C19.9246 5.69771 19.9187 5.07074 19.9129 4.44386C19.7752 4.43996 19.6371 4.43646 19.4995 4.43256C19.3614 4.42906 19.2237 4.42515 19.0856 4.42157C19.0848 4.3826 19.0844 4.34356 19.0837 4.3046C19.0829 4.24022 19.0875 3.88673 19.0945 3.51889Z" fill="#FFFEFC"/>
<path id="Vector_4" fill-rule="evenodd" clip-rule="evenodd" d="M27.7304 8.63029C28.1865 8.16059 29.3121 7.04016 30.2321 6.13935C31.1521 5.239 31.9046 4.48875 31.9046 4.4716C31.9046 4.45485 30.7988 4.44121 29.4478 4.44121C28.6287 4.44121 27.8099 4.44121 26.9907 4.44121C26.9822 4.25588 26.9741 4.07056 26.9655 3.88524C26.9221 2.92753 26.9263 2.85459 27.0272 2.82723C27.168 2.78943 33.6546 2.80112 33.8194 2.83978C33.9998 2.88147 34.2228 3.0551 34.3271 3.23419C34.3834 3.33013 34.4074 3.45848 34.4187 3.71792C34.4408 4.229 34.3942 4.36086 34.0832 4.67173C33.7663 4.98813 31.6637 7.03159 31.3422 7.33584C31.2142 7.45679 30.8476 7.82237 30.5276 8.14812C30.2077 8.47419 29.7775 8.89557 29.5716 9.08479C29.3656 9.27432 29.207 9.43938 29.219 9.45146C29.2314 9.46354 30.4078 9.47367 31.8336 9.47367C32.6973 9.47367 33.5615 9.47367 34.4257 9.47367C34.4257 9.74012 34.4257 10.007 34.4257 10.2734C34.4257 10.5399 34.4257 10.8068 34.4257 11.0732C33.1717 11.0732 31.9174 11.0732 30.6634 11.0732C29.4094 11.0732 28.1551 11.0732 26.9011 11.0732C26.9011 10.8083 26.9011 10.5434 26.9011 10.2786C26.9011 10.0137 26.9011 9.74877 26.9011 9.48349C27.1777 9.19904 27.4538 8.91467 27.7304 8.63029Z" fill="#FFFEFC"/>
<path id="Vector_5" fill-rule="evenodd" clip-rule="evenodd" d="M35.5355 6.1772C35.6903 5.30568 36.0521 4.59876 36.6708 3.95901C37.2898 3.31919 37.9546 2.96499 38.8824 2.78006C39.3536 2.68599 40.4404 2.71958 40.9008 2.84209C42.1144 3.16473 43.055 3.93906 43.5867 5.05209C43.8571 5.61811 43.9715 6.09178 43.9955 6.74555C44.0277 7.60421 43.909 8.18512 43.5553 8.901C43.0201 9.98511 42.0814 10.7408 40.8709 11.0618C40.407 11.1847 39.4304 11.2308 38.9855 11.1504C37.7936 10.9358 36.9624 10.4548 36.3264 9.61182C35.8935 9.03832 35.6592 8.49061 35.534 7.75992C35.4595 7.32763 35.4603 6.60006 35.5355 6.1772ZM37.2572 6.19668C37.251 6.19668 37.2448 6.19668 37.2386 6.19668C37.2285 6.19668 37.2025 6.27586 37.1409 6.54776C37.1409 6.62585 37.1409 6.70386 37.1409 6.78187C37.1409 6.87625 37.1413 6.97031 37.1413 7.06469C37.1436 8.12075 37.8231 9.06793 38.8323 9.42182C39.1085 9.51853 39.1915 9.52905 39.6814 9.53061C40.1437 9.53178 40.2678 9.51853 40.5153 9.4413C41.0893 9.26222 41.5943 8.90529 41.8615 8.48983C42.6403 7.27884 42.4049 5.6072 41.3495 4.84962C40.5017 4.24105 39.3928 4.17122 38.441 4.66586C38.0713 4.85781 37.595 5.33997 37.4217 5.69737C37.3519 5.84053 37.2863 6.01175 37.2572 6.19668Z" fill="url(#paint0_linear_0_77)"/>
<path id="Vector_6" fill-rule="evenodd" clip-rule="evenodd" d="M37.1409 6.54764C37.2026 6.2759 37.2286 6.19676 37.2386 6.19676C37.2448 6.19676 37.251 6.19676 37.2572 6.19676C37.2421 6.59016 37.2169 6.71766 37.1894 6.74063C37.1731 6.75434 37.1572 6.76797 37.1409 6.7816C37.1409 6.70364 37.1409 6.62568 37.1409 6.54764Z" fill="#010801"/>
</g>
<defs>
<linearGradient id="paint0_linear_0_77" x1="36.6731" y1="3.82652" x2="42.4227" y2="10.4136" gradientUnits="userSpaceOnUse">
<stop offset="0.0865294" stop-color="#A4ED41"/>
<stop offset="0.491837" stop-color="#63DB9B"/>
<stop offset="0.765526" stop-color="#21C8F5"/>
<stop offset="1" stop-color="#4230F8"/>
</linearGradient>
</defs>
</svg>
